<svg width="343" height="50" fill="none" xmlns="http://www.w3.org/2000/svg"><path d="M0 6.4c0-2.24 0-3.36.436-4.216A4 4 0 012.184.436C3.04 0 4.16 0 6.4 0h330.2c2.24 0 3.36 0 4.216.436a3.996 3.996 0 011.748 1.748C343 3.04 343 4.16 343 6.4v37.2c0 2.24 0 3.36-.436 4.216a3.996 3.996 0 01-1.748 1.748C339.96 50 338.84 50 336.6 50H6.4c-2.24 0-3.36 0-4.216-.436a4 4 0 01-1.748-1.748C0 46.96 0 45.84 0 43.6V6.4z" fill="#000"/><path d="M105.398 32h-5.322V17.908h5.342c1.204 0 2.178.322 2.92.967.749.645 1.123 1.494 1.123 2.549 0 .736-.238 1.403-.713 2.002-.469.592-1.042.95-1.719 1.074v.078c.957.124 1.719.498 2.285 1.123.573.625.86 1.406.86 2.344 0 1.243-.423 2.213-1.27 2.91-.84.697-2.008 1.045-3.506 1.045zm-3.564-12.54v4.522h2.637c1.041 0 1.836-.201 2.383-.605.553-.404.83-.986.83-1.748 0-.697-.232-1.23-.694-1.602-.462-.377-1.12-.566-1.972-.566h-3.184zm0 10.987h3.301c1.061 0 1.865-.211 2.412-.634.547-.424.82-1.042.82-1.856 0-1.64-1.133-2.46-3.398-2.46h-3.135v4.95zm18.908-8.603V32h-1.611v-1.65h-.039c-.632 1.217-1.706 1.826-3.223 1.826-1.1 0-1.963-.332-2.588-.996-.618-.67-.927-1.586-.927-2.744v-6.592h1.699v6.289c0 1.693.781 2.539 2.343 2.539.821 0 1.465-.257 1.934-.772.475-.52.713-1.217.713-2.09v-5.966h1.699zm3.547 13.955c-.299 0-.544-.02-.732-.059v-1.425c.156.032.377.048.664.048.475 0 .856-.127 1.142-.38.287-.248.528-.668.723-1.26l.234-.713-3.75-10.166h1.817l2.812 8.457h.03l2.812-8.457h1.787l-3.994 10.869c-.436 1.185-.908 1.995-1.416 2.431-.501.437-1.211.655-2.129.655zm26.908-13.955L148.365 32h-1.728l-2.295-7.861h-.039L142.018 32h-1.729l-2.842-10.156h1.69l2.031 8.261h.039l2.295-8.261h1.641l2.304 8.261h.039l2.032-8.261h1.679zM153.182 32V21.844h1.699V32h-1.699zm.849-11.865c-.286 0-.534-.104-.742-.313a1.015 1.015 0 01-.312-.742c0-.293.104-.54.312-.742.208-.208.456-.313.742-.313.293 0 .544.105.752.313.209.202.313.45.313.742 0 .287-.104.534-.313.742a1.025 1.025 0 01-.752.313zm4.192-.742h1.699v2.45h1.973v1.397h-1.973v6.035c0 .463.101.804.303 1.026.201.215.52.322.957.322.273 0 .507-.016.703-.049V32c-.222.052-.58.078-1.074.078-.931 0-1.596-.208-1.993-.625-.397-.416-.595-1.113-.595-2.09V23.24h-1.514v-1.396h1.514v-2.451zM164.299 32V17.908h1.699v5.557h.039a3.084 3.084 0 011.25-1.328c.553-.313 1.211-.469 1.973-.469 1.107 0 1.979.342 2.617 1.025.638.684.957 1.599.957 2.744V32h-1.699v-6.25c0-.82-.205-1.455-.615-1.904-.404-.45-1-.674-1.788-.674-.839 0-1.507.264-2.002.79-.488.528-.732 1.235-.732 2.12V32h-1.699zm47.153-7.328v7.076h-2.261V14.276h5.994c1.519 0 2.814.503 3.874 1.509 1.083 1.005 1.625 2.233 1.625 3.684 0 1.485-.542 2.713-1.625 3.707-1.048.995-2.343 1.486-3.874 1.486h-3.733v.011zm0-8.245v6.093h3.78c.895 0 1.649-.304 2.237-.9.601-.597.907-1.322.907-2.14 0-.808-.306-1.52-.907-2.117-.588-.62-1.33-.924-2.237-.924h-3.78v-.012zm15.143 2.971c1.673 0 2.991.444 3.957 1.333.965.889 1.448 2.105 1.448 3.65v7.367h-2.155v-1.66h-.094c-.93 1.368-2.178 2.046-3.733 2.046-1.33 0-2.437-.386-3.332-1.17-.895-.783-1.342-1.753-1.342-2.923 0-1.24.471-2.222 1.413-2.948.942-.736 2.202-1.099 3.768-1.099 1.342 0 2.449.246 3.309.737v-.515c0-.783-.307-1.438-.931-1.988a3.203 3.203 0 00-2.19-.819c-1.26 0-2.261.527-2.991 1.59l-1.99-1.239c1.095-1.579 2.72-2.362 4.863-2.362zm-2.92 8.678c0 .585.247 1.076.754 1.462.494.386 1.083.585 1.754.585.954 0 1.802-.351 2.544-1.053s1.118-1.52 1.118-2.468c-.706-.55-1.683-.83-2.943-.83-.919 0-1.684.222-2.297.655-.624.456-.93 1.006-.93 1.649zm20.619-8.292L236.758 37h-2.332l2.803-6.023-4.969-11.193h2.461l3.579 8.584h.047l3.486-8.584h2.461z" fill="#fff"/><path d="M202.46 23.246c0-.733-.066-1.433-.189-2.107h-9.476V25h5.458a4.642 4.642 0 01-2.026 3.11v2.504h3.249c1.897-1.744 2.984-4.322 2.984-7.367z" fill="#4285F4"/><path d="M196.228 28.109c-.905.606-2.069.96-3.432.96-2.631 0-4.864-1.761-5.664-4.136h-3.351v2.583a10.097 10.097 0 009.015 5.518c2.725 0 5.014-.89 6.68-2.422l-3.248-2.503z" fill="#34A853"/><path d="M186.817 23.018c0-.667.112-1.312.316-1.917v-2.583h-3.351a9.906 9.906 0 00-1.073 4.5 9.92 9.92 0 001.073 4.499l3.351-2.582a5.997 5.997 0 01-.316-1.917z" fill="#FABB05"/><path d="M192.796 16.965c1.487 0 2.819.509 3.871 1.503l2.879-2.857c-1.749-1.618-4.029-2.611-6.75-2.611a10.098 10.098 0 00-9.015 5.518l3.351 2.583c.8-2.375 3.033-4.136 5.664-4.136z" fill="#E94235"/></svg>