<svg width="24" height="16" fill="none" xmlns="http://www.w3.org/2000/svg"><path d="M0 2a2 2 0 012-2h20a2 2 0 012 2v12a2 2 0 01-2 2H2a2 2 0 01-2-2V2z" fill="#FDEACE"/><path d="M14.502 3.264l-5.164.017.156 9.455 5.165-.017-.157-9.455z" fill="#FF5F00"/><path d="M9.679 8.028a5.983 5.983 0 012.179-4.74 5.912 5.912 0 00-3.68-1.275c-3.279.011-5.887 2.712-5.832 6.04.055 3.328 2.753 6.011 6.032 6a5.772 5.772 0 003.637-1.3 6.133 6.133 0 01-2.336-4.725z" fill="#EB001B"/><path d="M21.653 7.947c.055 3.328-2.553 6.029-5.832 6.04a5.912 5.912 0 01-3.68-1.275c1.366-1.108 2.211-2.817 2.18-4.74a6.158 6.158 0 00-2.337-4.725 5.772 5.772 0 013.637-1.3c3.28-.011 5.977 2.689 6.032 6z" fill="#F79E1B"/></svg>