<svg width="24" height="16" fill="none" xmlns="http://www.w3.org/2000/svg"><path d="M0 2a2 2 0 012-2h20a2 2 0 012 2v12a2 2 0 01-2 2H2a2 2 0 01-2-2V2z" fill="#DCEFDC"/><path d="M19.944 5.103h-3.85c.224 1.27 1.458 2.467 2.803 2.467h3.066C22 7.458 22 7.271 22 7.16a2.074 2.074 0 00-2.056-2.056z" fill="url(#paint0_linear)"/><path d="M16.43 7.794v3.103h1.869V9.252h1.645c.897 0 1.682-.635 1.944-1.458H16.43zM9.85 5.103v5.757h1.645s.41 0 .635-.411a680.948 680.948 0 001.458-2.879h.224v3.29h1.87V5.103h-1.646s-.41.037-.635.411c-.935 1.907-1.458 2.879-1.458 2.879h-.224v-3.29h-1.87zM2 10.897V5.14h1.87s.523 0 .822.823c.747 2.168.822 2.467.822 2.467s.15-.523.822-2.467c.3-.823.823-.823.823-.823h1.869v5.757h-1.87V7.794h-.223l-1.047 3.103h-.823L4.02 7.794h-.225v3.103H2z" fill="#4FAD50"/><defs><linearGradient id="paint0_linear" x1="16.087" y1="6.354" x2="21.987" y2="6.354" gradientUnits="userSpaceOnUse"><stop stop-color="#27B1E6"/><stop offset="1" stop-color="#148ACA"/></linearGradient></defs></svg>