<svg width="343" height="50" fill="none" xmlns="http://www.w3.org/2000/svg"><path d="M0 12.8c0-4.48 0-6.72.872-8.432A8 8 0 014.368.872C6.08 0 8.32 0 12.8 0h317.4c4.48 0 6.721 0 8.432.872a8.001 8.001 0 013.496 3.496C343 6.08 343 8.32 343 12.8v24.4c0 4.48 0 6.72-.872 8.432a8.002 8.002 0 01-3.496 3.496C336.921 50 334.68 50 330.2 50H12.8c-4.48 0-6.72 0-8.432-.872a8 8 0 01-3.496-3.496C0 43.92 0 41.68 0 37.2V12.8z" fill="#000"/><path d="M155.591 18.525c.539-.652.921-1.539.921-2.437a1.69 1.69 0 00-.034-.348c-.876.033-1.932.583-2.561 1.325-.494.561-.954 1.46-.954 2.358 0 .135.022.27.033.315.057.01.146.022.236.022.786 0 1.775-.528 2.359-1.235zm.617 1.426c-1.314 0-2.381.797-3.066.797-.73 0-1.684-.752-2.83-.752-2.167 0-4.368 1.797-4.368 5.177 0 2.112.808 4.335 1.819 5.773.865 1.212 1.617 2.212 2.707 2.212 1.078 0 1.549-.719 2.886-.719 1.359 0 1.662.697 2.852.697 1.18 0 1.966-1.079 2.707-2.146.831-1.224 1.179-2.414 1.19-2.47-.067-.023-2.324-.944-2.324-3.526 0-2.235 1.774-3.235 1.875-3.314-1.168-1.684-2.954-1.729-3.448-1.729zm5.459 13.084h2.898v-5.357h3.571c3.291 0 5.514-2.18 5.514-5.413v-.023c0-3.246-2.223-5.413-5.514-5.413h-6.469v16.206zm5.761-13.836c2.078 0 3.291 1.111 3.291 3.054v.023c0 1.943-1.213 3.066-3.291 3.066h-2.863v-6.143h2.863zm10.805 14.038c1.617 0 2.92-.697 3.594-1.887h.191v1.684h2.762v-8.389c0-2.594-1.774-4.121-4.93-4.121-2.92 0-4.896 1.37-5.166 3.436l-.011.101h2.639l.011-.045c.281-.808 1.112-1.269 2.393-1.269 1.504 0 2.302.674 2.302 1.898v1.056l-3.156.19c-2.987.18-4.661 1.46-4.661 3.65v.023c0 2.235 1.696 3.673 4.032 3.673zm-1.269-3.808v-.022c0-1.01.73-1.584 2.291-1.684l2.763-.18v.988c0 1.46-1.247 2.56-2.931 2.56-1.236 0-2.123-.617-2.123-1.662zm10.883 7.918c2.718 0 4.122-.977 5.178-4.054l4.402-12.533h-2.942l-2.853 9.59h-.213l-2.864-9.59H185.5l4.391 12.286-.146.561c-.303 1.112-.988 1.584-2.133 1.584-.292 0-.607-.012-.832-.034v2.145c.337.034.73.045 1.067.045z" fill="#fff"/></svg>