<svg width="102" height="68" fill="none" xmlns="http://www.w3.org/2000/svg"><path d="M0 8.5A8.5 8.5 0 018.5 0h85a8.5 8.5 0 018.5 8.5v51a8.5 8.5 0 01-8.5 8.5h-85A8.5 8.5 0 010 59.5v-51z" fill="#FCE6CF"/><path d="M65.258 40.568c.847.363 1.21 1.573 1.21 2.178.121.968-.12 1.452-.484 1.452-.363 0-.847-.363-1.33-1.21-.485-.847-.727-1.694-.485-2.178.363-.242.726-.363 1.09-.242zm-4.962 3.751c.484 0 1.09.242 1.694.726.968.847 1.331 1.815.847 2.541-.242.363-.847.605-1.33.605-.606 0-1.211-.242-1.574-.605-.968-.847-1.21-2.057-.605-2.783.12-.242.484-.484.968-.484z" fill="#F28A1A"/><path d="M48.803 53.879c-12.585 0-22.75-10.165-22.75-22.63 0-12.463 10.165-22.749 22.75-22.749s22.75 10.165 22.75 22.75c0 4.235-1.21 8.228-3.147 11.617-.12.12-.242.12-.242-.121-.847-5.567-4.235-8.592-9.076-9.56-.484-.121-.484-.363.121-.363 1.573-.121 3.63-.121 4.84.121.122-.605.122-1.21.122-1.694 0-8.229-6.777-15.005-15.005-15.005-8.23 0-15.006 6.776-15.006 15.005 0 8.228 6.777 15.005 15.006 15.005h.726c-.242-1.331-.363-2.662-.242-4.114 0-.968.242-1.09.605-.363 2.057 3.63 5.082 6.776 10.89 8.107 4.72 1.09 9.44 2.3 14.643 8.713.484.605-.242 1.21-.726.726-5.204-4.598-9.923-6.171-14.28-6.171-5.445.12-8.712.726-11.98.726z" fill="#F28A1A"/></svg>