<svg width="24" height="16" fill="none" xmlns="http://www.w3.org/2000/svg"><path d="M0 2a2 2 0 012-2h20a2 2 0 012 2v12a2 2 0 01-2 2H2a2 2 0 01-2-2V2z" fill="#D8E3F3"/><path d="M20.655 5.018h-1.257c-.38 0-.673.116-.848.497l-2.398 5.467h1.696s.293-.73.351-.906h2.076c.059.205.205.877.205.877H22l-1.345-5.935zm-1.988 3.83c.146-.351.643-1.667.643-1.667 0 .03.146-.35.205-.555l.117.526s.321 1.433.38 1.725h-1.345v-.03zm-2.399.175c0 1.228-1.11 2.047-2.836 2.047-.731 0-1.433-.146-1.813-.322l.234-1.345.205.088c.526.234.877.322 1.52.322.468 0 .965-.176.965-.585 0-.263-.205-.439-.848-.73-.614-.293-1.433-.761-1.433-1.61 0-1.169 1.14-1.958 2.749-1.958.614 0 1.14.117 1.462.263l-.234 1.287-.117-.117a3.142 3.142 0 00-1.228-.234c-.614.029-.906.292-.906.526 0 .263.35.468.906.731.936.439 1.374.936 1.374 1.637z" fill="#3362AB"/><path d="M2 5.076l.03-.117h2.514c.35 0 .614.117.702.497L5.8 8.088C5.246 6.684 3.96 5.544 2 5.076z" fill="#F9B50B"/><path d="M9.338 5.018l-2.543 5.935H5.069l-1.462-4.97c1.053.672 1.93 1.725 2.252 2.456l.175.614 1.58-4.065h1.724v.03zm.674-.03h1.608l-1.023 5.965H8.988l1.024-5.965z" fill="#3362AB"/></svg>