<svg width="102" height="68" fill="none" xmlns="http://www.w3.org/2000/svg"><path d="M0 8.5A8.5 8.5 0 018.5 0h85a8.5 8.5 0 018.5 8.5v51a8.5 8.5 0 01-8.5 8.5h-85A8.5 8.5 0 010 59.5v-51z" fill="#FAE3D1"/><path d="M73.552 25.805c-.236-1.42-1.537-2.366-3.312-2.366h-1.655c-1.065-.118-1.302.237-1.302 1.065v12.302c0 2.129-2.129 4.376-4.613 4.85-7.807 1.774-15.614 3.43-23.42 5.204-.828.237-1.775.236-2.721.236-.355 0-.946-.236-1.065-.59-.118-.237.237-.71.474-.947.354-.237.828-.473 1.3-.71 1.42-.473 2.958-.946 4.377-1.42 5.796-1.892 11.592-3.785 17.388-5.795 2.603-.828 4.022-2.603 4.022-4.85.118-7.097 0-14.313 0-21.41 0-1.183-.591-2.13-1.892-2.602-1.538-.592-2.958-.119-4.259.473-8.28 3.903-16.442 7.807-24.722 11.71-2.365 1.183-3.785 2.84-3.785 5.205v20.227c0 .355 0 .71.118.946.828 2.248 2.958 3.667 5.797 3.667H68.94c1.3 0 2.365-.237 3.311-1.065 1.183-.946 1.183-2.247 1.183-3.43 0-5.82.118-20.7.118-20.7zm-24.13-2.13c.592-1.537 1.893-2.483 3.785-2.72 1.301-.118 2.366.592 2.603 1.775.236 1.774-1.893 3.903-4.14 3.903-1.775 0-2.84-1.301-2.248-2.957z" fill="#E47418"/></svg>